<?xml version="1.0" standalone="no"?>
<!DOCTYPE svg PUBLIC "-//W3C//DTD SVG 20010904//EN"
 "http://www.w3.org/TR/2001/REC-SVG-20010904/DTD/svg10.dtd">
<svg version="1.0" xmlns="http://www.w3.org/2000/svg"
 width="540.000000pt" height="540.000000pt" viewBox="0 0 540.000000 540.000000"
 preserveAspectRatio="xMidYMid meet">
<metadata>
Created by potrace 1.14, written by Peter Selinger 2001-2017
</metadata>
<g transform="translate(0.000000,540.000000) scale(0.100000,-0.100000)"
fill="#000000" stroke="none">
<path d="M1085 4045 c-337 -78 -614 -256 -809 -520 -143 -193 -221 -378 -260
-620 -13 -80 -14 -350 -2 -410 4 -16 11 -55 17 -85 18 -90 67 -227 116 -326
162 -324 453 -574 801 -689 43 -14 88 -28 102 -31 141 -29 186 -33 360 -30
169 3 195 6 301 34 338 90 617 286 808 568 49 73 120 214 151 302 25 69 16 65
143 64 l58 -1 -3 42 -3 42 -70 1 c-90 2 -87 1 -76 22 5 9 9 19 9 22 -1 3 5 51
12 108 11 95 9 289 -5 380 -40 265 -182 544 -375 740 -96 98 -119 117 -213
181 -134 90 -276 153 -442 198 -91 24 -119 27 -310 29 -190 2 -219 0 -310 -21z"/>
<path d="M2850 3231 l0 -61 -49 0 c-34 0 -51 -4 -55 -15 -4 -12 5 -15 49 -15
l55 0 0 -205 c0 -113 0 -208 1 -212 3 -19 43 -65 67 -77 51 -25 172 -4 172 31
0 16 -3 16 -47 -2 -59 -25 -136 -2 -149 44 -4 14 -8 115 -9 224 l-1 197 88 0
c72 0 88 3 88 15 0 12 -16 15 -88 15 l-89 0 1 57 c0 47 -3 58 -17 61 -15 3
-17 -5 -17 -57z"/>
<path d="M3246 3230 l2 -60 -54 0 c-41 0 -54 -4 -54 -15 0 -11 13 -15 53 -15
l52 0 1 -210 c1 -179 4 -213 18 -235 27 -41 72 -63 122 -60 47 3 104 22 104
36 0 15 -21 21 -35 9 -22 -18 -89 -20 -123 -3 -46 22 -52 54 -52 270 l1 194
27 -1 c15 -1 55 -2 90 -1 48 1 62 4 62 16 0 12 -17 15 -90 15 l-89 0 -3 57
c-2 42 -7 59 -18 61 -13 2 -15 -8 -14 -58z"/>
<path d="M3763 3169 c-39 -7 -113 -39 -141 -62 -9 -7 -9 -13 -1 -24 10 -11 14
-11 28 1 68 62 228 76 289 26 31 -25 52 -80 52 -134 l0 -44 -142 -4 c-121 -2
-148 -6 -177 -23 -88 -52 -102 -151 -33 -221 32 -32 58 -42 120 -49 91 -10
186 27 218 85 12 22 13 23 15 5 0 -11 0 -34 -1 -51 -1 -29 23 -55 33 -36 3 4
4 97 3 207 -2 191 -3 202 -26 242 -38 68 -130 100 -237 82z m220 -268 c13 -2
8 -111 -7 -139 -21 -39 -59 -72 -102 -87 -52 -17 -154 -12 -188 10 -50 33 -70
100 -44 148 28 53 55 64 168 66 47 1 86 3 87 4 1 2 62 0 86 -2z"/>
<path d="M3603 2614 c-18 -18 -22 -30 -17 -47 22 -70 134 -49 118 23 -7 32
-13 38 -47 44 -22 4 -35 -1 -54 -20z"/>
<path d="M2930 2600 l-25 -6 0 -204 0 -205 48 -2 c35 -1 47 2 47 13 0 13 3 13
22 0 13 -9 43 -16 70 -16 43 0 52 4 88 41 24 25 41 52 42 68 4 79 2 97 -15
132 -29 59 -105 88 -166 63 -18 -8 -34 -14 -35 -14 0 0 -1 28 -1 62 0 57 -2
62 -25 68 -14 4 -36 4 -50 0z m175 -210 c10 -11 17 -35 17 -56 0 -94 -112 -92
-115 1 -2 60 61 96 98 55z"/>
<path d="M3388 2489 c-59 -9 -92 -33 -114 -83 -67 -145 83 -280 232 -210 46
22 47 26 19 58 -23 26 -27 28 -54 17 -41 -17 -81 -10 -99 17 -15 23 -15 24 9
22 13 -1 61 -2 107 -1 l82 1 0 32 c0 35 -34 113 -53 121 -75 31 -85 33 -129
26z m60 -85 c39 -27 28 -41 -30 -40 -59 2 -71 21 -28 43 32 16 31 16 58 -3z"/>
<path d="M3917 2489 c-16 -4 -35 -13 -43 -20 -11 -9 -14 -8 -14 3 0 12 -13 16
-49 16 l-49 2 1 -153 2 -152 49 0 50 0 0 91 c1 102 11 124 57 124 39 0 47 -21
47 -117 0 -45 3 -86 6 -92 4 -5 26 -9 51 -8 l45 1 0 103 c0 106 -12 155 -43
181 -23 20 -77 30 -110 21z"/>
<path d="M3598 2478 c-3 -7 -4 -76 -4 -153 l1 -140 50 0 50 0 0 153 1 152 -47
0 c-29 0 -49 -5 -51 -12z"/>
<path d="M4163 2468 c-60 -43 -78 -120 -44 -191 33 -68 118 -97 183 -63 25 13
27 13 24 -2 -8 -40 -19 -51 -61 -57 -30 -5 -52 -2 -73 9 -40 21 -38 21 -56
-16 -21 -41 -21 -42 17 -60 45 -22 174 -19 210 5 56 36 62 57 65 234 l4 163
-46 0 c-32 0 -48 -5 -52 -15 -5 -13 -8 -13 -27 0 -33 23 -107 19 -144 -7z
m152 -84 c18 -23 18 -36 4 -68 -29 -62 -124 -26 -113 43 8 48 79 65 109 25z"/>
</g>
</svg>
